<?xml version="1.0" encoding="UTF-8"?>
<svg viewBox="0 0 446 291" xmlns="http://www.w3.org/2000/svg">
 <polyline points="271.94 83.796 271.94 83.796" fill="none" stroke="#000" stroke-linecap="round" stroke-width="5"/>
 <g fill="#007f00">
  <g stroke-linecap="round" stroke-width="33.805">
   <path d="m28.734 136.78l7.5193 20.671c-0.016197 0.018005-0.026699 0.040009-0.042797 0.058014l0.0571 0.171c-3.1621 3.446-6.0066 7.25-8.4628 11.393l-22.644-0.614c-0.44904 1.017-0.90814 2.033-1.3152 3.059-0.55456 1.397-1.0663 2.793-1.5439 4.203-0.47742 1.41-0.92824 2.839-1.3295 4.26-0.35941 1.272-0.67357 2.539-0.97208 3.817l18.527 12.394c-0.022501 0.20299-0.007999 0.411-0.028601 0.614l0.1287 0.086c-0.2131 2.161-0.2844 4.322-0.2859 6.476h40.684c0.008202-1.298 0.1148-2.597 0.3005-3.874 0.1853-1.276 0.4575-2.536 0.8148-3.774 0.3568-1.238 0.7923-2.45 1.3151-3.631 0.5229-1.181 1.1327-2.325 1.8157-3.431 0.6825-1.106 1.4359-2.174 2.2726-3.188 0.8371-1.013 1.7593-1.97 2.7447-2.873 0.9853-0.903 2.0315-1.755 3.1596-2.53 1.1276-0.776 2.3376-1.486 3.6024-2.116 0.90211-0.44899 1.8056-0.836 2.7301-1.187 0.9245-0.34999 1.8618-0.661 2.8019-0.914 0.9401-0.254 1.8819-0.457 2.8307-0.61499 0.4456-0.075012 0.8971-0.104 1.3435-0.158 0.15279-0.018997 0.3047-0.039001 0.4575-0.057007 0.3522-0.036987 0.7058-0.10399 1.0581-0.12799 0.344-0.024002 0.6852-0.003006 1.0292-0.014999 0.3902-0.016006 0.7804-0.027008 1.172-0.028 0.2146 9.92e-4 0.4296-0.020004 0.6437-0.014999 0.1573 0.00499 0.3142 0.022003 0.4716 0.028992 0.78539 0.026001 1.5723 0.097 2.3586 0.186 3.3751 0.382 6.7453 1.307 9.9493 2.902 10.118 5.037 15.931 15.034 15.997 25.417h40.727c0-2.162-0.098999-4.335-0.314-6.505l18.755-12.551c-0.00499-0.024002-0.022995-0.046997-0.028-0.070999-0.326-1.429-0.68599-2.854-1.087-4.274-0.401-1.421-0.83701-2.836-1.315-4.246-0.478-1.41-0.989-2.806-1.544-4.203-0.40199-1.014-0.842-2.026-1.287-3.031l-22.472 0.615c-0.14999-0.254-0.332-0.491-0.48599-0.743h-0.143c-1.101-1.809-2.272-3.557-3.516-5.233-1.245-1.675-2.556-3.279-3.932-4.817l7.634-20.957c-0.66299-0.57799-1.322-1.158-2.001-1.715-1.129-0.92799-2.276-1.833-3.445-2.702-1.17-0.869-2.367-1.706-3.574-2.516s-2.431-1.594-3.674-2.345c-0.356-0.21398-0.711-0.424-1.072-0.62899l-17.841 13.424c-0.26-0.11401-0.526-0.19-0.786-0.3l-0.043 0.028c-1.97-0.83701-3.981-1.572-6.019-2.23-2.037-0.65799-4.097-1.226-6.189-1.701l-0.029-0.072c-0.009987-0.001999-0.017998-0.011993-0.028-0.013992l-6.419-21.3c-0.903-0.09301-1.7955-0.20501-2.7017-0.271-1.457-0.10702-2.9249-0.16302-4.3888-0.201-0.9794-0.025009-1.962-0.016998-2.945-0.014008-0.4918 0.004997-0.9813-0.013-1.4721 0-1.4643 0.03801-2.9176 0.10799-4.3746 0.21501-0.46339 0.03299-0.9245 0.10199-1.3866 0.142l-6.4043 21.215c-4.6472 0.959-9.1815 2.37-13.538 4.217l-18.012-13.538c-0.6019 0.34501-1.2072 0.671-1.8012 1.029-1.2429 0.75101-2.4665 1.535-3.6739 2.345-1.2074 0.81001-2.4047 1.647-3.5739 2.516-1.1693 0.869-2.3165 1.774-3.4452 2.702-0.4485 0.368-0.8744 0.76401-1.3151 1.143zm83.156 17.97c0.62201 0.042999 1.254 0.20599 1.844 0.5 2.36 1.175 3.304 4.012 2.101 6.318-1.203 2.307-4.101 3.22-6.461 2.045-2.361-1.175-3.304-3.998-2.102-6.305 0.902-1.729 2.751-2.688 4.618-2.558zm-68.103 21.628c0.622 0.042999 1.2539 0.207 1.8441 0.50101 2.3604 1.175 3.3041 3.998 2.1015 6.304-1.2031 2.306-4.101 3.22-6.4616 2.044-2.3606-1.175-3.3043-3.998-2.1014-6.304 0.9021-1.73 2.7513-2.674 4.6174-2.545z"/>
   <path d="m148.33 269.37l-7.52-20.671c0.015991-0.018005 0.026993-0.040009 0.042999-0.057007l-0.057-0.172c3.162-3.446 6.007-7.25 8.463-11.394l22.644 0.615c0.449-1.017 0.908-2.033 1.315-3.059 0.554-1.397 1.066-2.793 1.544-4.203 0.477-1.41 0.92799-2.839 1.329-4.26 0.35901-1.272 0.67401-2.539 0.972-3.817l-18.527-12.394c0.022995-0.203 0.007996-0.411 0.028992-0.615l-0.128-0.085c0.21199-2.161 0.284-4.322 0.28499-6.476h-40.684c-0.009003 1.298-0.115 2.597-0.3 3.874-0.186 1.276-0.458 2.536-0.815 3.774s-0.792 2.45-1.315 3.631-1.133 2.325-1.816 3.431-1.436 2.174-2.273 3.188c-0.837 1.013-1.759 1.97-2.745 2.873-0.985 0.90399-2.031 1.755-3.159 2.53-1.128 0.776-2.338 1.486-3.602 2.116-0.903 0.449-1.806 0.836-2.731 1.187-0.924 0.35001-1.8617 0.66101-2.8018 0.914-0.94 0.254-1.8815 0.457-2.8302 0.615-0.446 0.074997-0.8971 0.103-1.344 0.157-0.1528 0.020004-0.3042 0.039993-0.4575 0.057007-0.35181 0.036987-0.7058 0.105-1.0576 0.129-0.344 0.024002-0.6857 0.002991-1.0293 0.014999-0.39059 0.015991-0.78039 0.026993-1.1724 0.028-0.2141-0.001007-0.4291 0.019989-0.6432 0.014999-0.15731-0.005005-0.3143-0.022003-0.47161-0.029007-0.78589-0.026001-1.5723-0.097-2.3586-0.18599-3.3756-0.38101-6.7461-1.307-9.9496-2.902-10.118-5.037-15.932-15.034-15.997-25.417h-40.728c5e-4 2.162 0.0998 4.335 0.3145 6.504l-18.756 12.552c0.0055 0.023987 0.02308 0.046997 0.02859 0.070999 0.32576 1.429 0.68527 2.854 1.0864 4.274 0.40118 1.421 0.83771 2.836 1.3152 4.246 0.47746 1.41 0.98935 2.806 1.5439 4.203 0.40259 1.014 0.84194 2.026 1.2866 3.031l22.472-0.615c0.1503 0.254 0.3324 0.491 0.486 0.743h0.143c1.1015 1.809 2.2722 3.557 3.5166 5.232 1.2444 1.676 2.5558 3.28 3.9313 4.818l-7.6337 20.957c0.6633 0.578 1.3225 1.158 2.0013 1.715 1.1286 0.92703 2.2759 1.833 3.4452 2.702 1.1692 0.86902 2.3665 1.706 3.5738 2.516 1.2074 0.81 2.4311 1.595 3.6739 2.344 0.3556 0.215 0.7114 0.42496 1.0722 0.62897l17.841-13.423c0.2594 0.11404 0.5256 0.19003 0.7859 0.30002l0.043-0.028c1.9693 0.83704 3.9812 1.572 6.0182 2.23 2.037 0.65701 4.0983 1.226 6.1903 1.701l0.0283 0.071c0.010101 0.002991 0.018303 0.01297 0.028801 0.014984l6.4185 21.3c0.9026 0.093048 1.7955 0.20505 2.7017 0.271 1.457 0.108 2.9245 0.16202 4.3888 0.20001 0.979 0.026031 1.962 0.018036 2.9447 0.015045 0.4922-0.005005 0.9812 0.013 1.4725 0 1.4638-0.038025 2.9176-0.10803 4.3746-0.21506 0.4629-0.032959 0.924-0.10196 1.3865-0.14298l6.4048-21.214c4.646-0.95895 9.181-2.37 13.537-4.217l18.012 13.538c0.602-0.34503 1.207-0.67099 1.801-1.03 1.243-0.74902 2.467-1.534 3.674-2.344 1.208-0.81 2.405-1.647 3.574-2.516 1.17-0.86899 2.317-1.775 3.445-2.702 0.449-0.36795 0.875-0.76401 1.316-1.143zm-83.156-17.97c-0.6221-0.042999-1.2538-0.20599-1.844-0.5-2.3609-1.175-3.3046-4.012-2.1015-6.318 1.2026-2.307 4.1006-3.22 6.4615-2.045 2.3605 1.175 3.3042 3.998 2.1015 6.304-0.9021 1.731-2.7515 2.689-4.6175 2.559zm68.103-21.628c-0.62199-0.042999-1.254-0.207-1.844-0.50099-2.361-1.175-3.305-3.998-2.102-6.304s4.101-3.219 6.462-2.044c2.36 1.175 3.304 3.997 2.101 6.304-0.90201 1.73-2.751 2.674-4.617 2.545z"/>
  </g>
  <g stroke-linejoin="round">
   <path d="m88.623 159.94c-23.508 0-42.694 19.167-42.694 42.675s19.186 42.694 42.694 42.694 42.676-19.186 42.676-42.694-19.168-42.675-42.676-42.675zm0 9.744c18.235 0 32.931 14.696 32.931 32.931s-14.696 32.95-32.931 32.95-32.95-14.715-32.95-32.95 14.715-32.931 32.95-32.931z" stroke-width="15.973"/>
   <path d="m88.623 161.37c-22.728 0-41.245 18.517-41.245 41.245s18.518 41.245 41.245 41.245c22.728 0 41.226-18.517 41.226-41.245s-18.498-41.245-41.226-41.245zm0 6.864c19.015 0 34.381 15.366 34.381 34.381s-15.366 34.381-34.381 34.381-34.38-15.366-34.38-34.381 15.365-34.381 34.38-34.381z" stroke-width="11.245"/>
  </g>
 </g>
 <g fill="#007f00" stroke-dasharray="null" stroke-linecap="null" stroke-linejoin="null" stroke-width="5">
  <ellipse cx="112.05" cy="159.62" rx="7.7767" ry="7.7767"/>
  <ellipse cx="45.259" cy="181.57" rx="7.7767" ry="7.7767"/>
  <ellipse cx="65.387" cy="247.45" rx="7.7767" ry="7.7767"/>
  <ellipse cx="135.83" cy="225.49" rx="7.7767" ry="7.7767"/>
 </g>
 <ellipse cx="88.531" cy="203.07" rx="41.628" ry="41.628" fill="#fff" stroke-dasharray="null" stroke-linecap="null" stroke-linejoin="null" stroke-width="5"/>
 <g stroke-linecap="round" stroke-width="33.805">
  <path d="m149.14 21.999l7.5194 20.671c-0.016251 0.017551-0.026672 0.039612-0.042877 0.057171l0.0572 0.1715c-3.1621 3.4464-6.0066 7.2496-8.4628 11.393l-22.644-0.6143c-0.44904 1.0174-0.90814 2.0334-1.3152 3.059-0.55455 1.3975-1.0663 2.7927-1.5439 4.2031-0.47742 1.4099-0.92824 2.8394-1.3295 4.2598-0.35941 1.2726-0.67357 2.5388-0.97208 3.817l18.527 12.394c-0.022507 0.20313-0.00795 0.41126-0.028595 0.61438l0.1287 0.086c-0.21304 2.161-0.28436 4.322-0.28592 6.4757h40.684c0.00824-1.2978 0.11482-2.5974 0.30055-3.8742 0.18527-1.2763 0.45746-2.5361 0.81471-3.774 0.35681-1.2374 0.79231-2.4501 1.3152-3.6308 0.52287-1.1807 1.1327-2.3248 1.8156-3.4309 0.68253-1.1061 1.4359-2.1743 2.2726-3.188 0.83713-1.0137 1.7594-1.9698 2.7447-2.8732 0.98535-0.90347 2.0315-1.7548 3.1596-2.5302 1.1276-0.77537 2.3376-1.4862 3.6024-2.1157 0.9021-0.44922 1.8056-0.83622 2.7301-1.1866 0.92452-0.3504 1.8618-0.66147 2.8019-0.9149 0.94006-0.25342 1.8819-0.45608 2.8307-0.61482 0.44554-0.074551 0.89705-0.10338 1.3436-0.15736 0.15277-0.019669 0.30466-0.039799 0.45743-0.057178 0.35223-0.037052 0.70587-0.10384 1.0581-0.12854 0.34399-0.023792 0.68524-0.002293 1.0292-0.014172 0.39023-0.016941 0.78043-0.027 1.172-0.028828 0.21454 0.001369 0.42956-0.019672 0.64365-0.014191 0.15735 0.00412 0.31427 0.021969 0.47165 0.02882 0.78543 0.026077 1.5722 0.096989 2.3586 0.18573 3.3751 0.38152 6.7456 1.3069 9.9495 2.9021 10.118 5.0366 15.931 15.034 15.997 25.417h40.727c-4.27e-4 -2.1619-0.099701-4.3353-0.3147-6.5045l18.756-12.551c-0.005035-0.024239-0.022888-0.047119-0.028381-0.07135-0.32568-1.4286-0.68524-2.854-1.0864-4.2744-0.40118-1.4204-0.83762-2.8357-1.3152-4.2456-0.4776-1.4103-0.98947-2.8056-1.5439-4.2031-0.40256-1.0142-0.84174-2.026-1.2868-3.0306l-22.472 0.6148c-0.15048-0.25389-0.33255-0.49131-0.48627-0.74337h-0.14273c-1.1015-1.8083-2.2726-3.5567-3.5169-5.2323-1.2443-1.6752-2.5558-3.2797-3.9313-4.8173l7.6339-20.957c-0.6633-0.57849-1.3225-1.1578-2.0014-1.7154-1.1285-0.92731-2.2763-1.8327-3.4451-2.7018-1.1697-0.86906-2.3668-1.7059-3.5741-2.516-1.2072-0.81001-2.4309-1.5942-3.6738-2.3444-0.3559-0.21459-0.71136-0.42434-1.0723-0.629l-17.841 13.423c-0.25986-0.11386-0.52609-0.18971-0.78638-0.30023l-0.0425 0.0286c-1.9698-0.83755-3.9817-1.5724-6.0187-2.2301-2.037-0.65764-4.0979-1.226-6.1898-1.7011l-0.0284-0.0715c-0.010529-0.002241-0.018768-0.012041-0.028809-0.01428l-6.4185-21.3c-0.90298-0.09314-1.7955-0.20514-2.7017-0.27161-1.457-0.10682-2.925-0.16212-4.3888-0.20013-0.9794-0.02542-1.962-0.01752-2.9451-0.0143-0.49176 0.00524-0.98123-0.01274-1.4721 0-1.4643 0.03803-2.9176 0.10761-4.3746 0.21443-0.46341 0.03396-0.92452 0.10202-1.3865 0.14296l-6.4043 21.214c-4.6472 0.95923-9.1815 2.3698-13.538 4.2172l-18.012-13.538c-0.60187 0.34483-1.2071 0.67063-1.8012 1.0293-1.2429 0.75018-2.4664 1.5345-3.6739 2.3444-1.2074 0.81006-2.4046 1.6469-3.5738 2.516-1.1693 0.86911-2.3165 1.7745-3.4452 2.7018-0.44849 0.36851-0.87447 0.76452-1.3152 1.1436zm83.156 17.969c0.62216 0.04314 1.2539 0.20659 1.844 0.50037 2.3604 1.1751 3.3042 4.0122 2.1015 6.3184-1.2031 2.3065-4.101 3.2195-6.4615 2.0444-2.3609-1.1752-3.3041-3.9979-2.1015-6.3043 0.90207-1.7298 2.7511-2.6882 4.6175-2.5589zm-68.103 21.629c0.62198 0.042999 1.2539 0.20677 1.8441 0.50046 2.3604 1.1752 3.3042 3.9981 2.1015 6.3041-1.2031 2.3065-4.101 3.2196-6.4616 2.0444s-3.3043-3.9981-2.1014-6.3041c0.9021-1.7301 2.7513-2.6738 4.6174-2.5448z"/>
  <path d="m268.74 154.59l-7.5191-20.671c0.015991-0.017853 0.02655-0.039764 0.042542-0.057159l-0.0572-0.1716c3.1624-3.4464 6.0068-7.2497 8.4629-11.394l22.644 0.6148c0.44922-1.0174 0.90805-2.0334 1.3152-3.059 0.55444-1.3975 1.0663-2.7927 1.5439-4.2031 0.47757-1.4098 0.92816-2.8394 1.3294-4.2598 0.35953-1.2726 0.6738-2.5389 0.97208-3.817l-18.527-12.394c0.022858-0.20309 0.008209-0.41126 0.028809-0.6148l-0.1286-0.0856c0.21274-2.161 0.28412-4.322 0.28592-6.4757h-40.685c-0.008209 1.2978-0.11481 2.5974-0.30008 3.8737-0.18524 1.2768-0.45789 2.5366-0.8147 3.774-0.35727 1.2379-0.7923 2.4506-1.3152 3.6312-0.52286 1.1807-1.1331 2.3248-1.8156 3.4309-0.68253 1.1061-1.4359 2.1742-2.2731 3.188-0.83667 1.0133-1.7594 1.9698-2.7447 2.8733-0.98535 0.90347-2.0311 1.7548-3.1592 2.5302-1.1281 0.77539-2.3376 1.4863-3.6024 2.1157-0.90256 0.44922-1.806 0.83621-2.7305 1.1866-0.92453 0.35041-1.8618 0.66144-2.8019 0.91489-0.94006 0.25342-1.8815 0.45609-2.8303 0.61481-0.44598 0.074585-0.89703 0.10294-1.344 0.15689-0.15277 0.019684-0.3042 0.040283-0.45743 0.05719-0.35181 0.037079-0.70584 0.10431-1.0576 0.129-0.34402 0.023796-0.68573 0.002319-1.0293 0.014191-0.39066 0.01693-0.7804 0.027008-1.1724 0.028343-0.21411-9.16e-4 -0.42911 0.020142-0.64319 0.014656-0.15735-0.004089-0.31427-0.02195-0.47162-0.028816-0.78592-0.026054-1.5723-0.096985-2.3586-0.18573-3.3755-0.3815-6.746-1.307-9.9496-2.9021-10.117-5.0365-15.932-15.034-15.997-25.417h-40.728c4.58e-4 2.1619 0.099762 4.3353 0.31448 6.504l-18.756 12.552c0.005486 0.024261 0.023079 0.047119 0.028587 0.071381 0.32575 1.4286 0.68527 2.854 1.0864 4.2744 0.40119 1.4204 0.83773 2.8358 1.3152 4.2456 0.47747 1.4103 0.98935 2.8055 1.5439 4.2031 0.40261 1.0142 0.84194 2.0261 1.2866 3.0306l22.472-0.6148c0.15027 0.25387 0.33243 0.4913 0.48604 0.74334h0.14296c1.1015 1.8083 2.2722 3.5567 3.5166 5.2319 1.2444 1.6756 2.5558 3.2799 3.9313 4.8179l-7.6337 20.957c0.6633 0.5787 1.3226 1.1579 2.0013 1.7155 1.1286 0.92725 2.2759 1.833 3.4452 2.7017 1.1692 0.86914 2.3665 1.7063 3.5738 2.516 1.2074 0.81015 2.4311 1.5946 3.6739 2.3444 0.35553 0.215 0.71138 0.42453 1.0721 0.629l17.841-13.423c0.25937 0.11392 0.5256 0.18939 0.7859 0.30011l0.043-0.0288c1.9693 0.83758 3.9812 1.5727 6.0182 2.2301 2.037 0.65784 4.0983 1.2264 6.1902 1.7012l0.0284 0.0713c0.010071 0.002319 0.01828 0.01239 0.028824 0.014679l6.4185 21.3c0.90256 0.093323 1.7955 0.20538 2.7017 0.27173 1.457 0.10706 2.9245 0.16193 4.3888 0.19989 0.97894 0.025635 1.962 0.017853 2.9446 0.014648 0.49219-0.005493 0.9812 0.012787 1.4725 0 1.4638-0.037964 2.9176-0.10794 4.3746-0.21454 0.46295-0.033844 0.92404-0.10199 1.3865-0.14319l6.4043-21.214c4.6468-0.95883 9.1815-2.3696 13.538-4.2168l18.012 13.537c0.60159-0.34442 1.2068-0.67017 1.801-1.0293 1.2429-0.74976 2.4666-1.5342 3.6738-2.3444 1.2077-0.80969 2.4048-1.6468 3.5741-2.516 1.1692-0.86871 2.3165-1.7745 3.445-2.7017 0.44833-0.36822 0.87466-0.76444 1.3152-1.1436zm-83.156-17.969c-0.62213-0.042999-1.2539-0.20676-1.844-0.50046-2.3609-1.1752-3.3046-4.0123-2.1015-6.3183 1.2026-2.3065 4.1006-3.2195 6.4615-2.0444 2.3604 1.1752 3.3042 3.9981 2.1015 6.3041-0.90208 1.7301-2.7516 2.6884-4.6175 2.559zm68.103-21.629c-0.6221-0.042999-1.2539-0.20679-1.844-0.50046-2.3609-1.1752-3.3046-3.9982-2.1015-6.3042 1.2026-2.3064 4.1006-3.2195 6.4615-2.0443 2.3604 1.1752 3.3041 3.9976 2.1015 6.3041-0.90253 1.7301-2.7516 2.6738-4.6175 2.5448z"/>
 </g>
 <g stroke-linejoin="round">
  <path d="m209.03 45.158c-23.508 0-42.694 19.167-42.694 42.675s19.186 42.694 42.694 42.694 42.676-19.186 42.676-42.694-19.167-42.675-42.676-42.675zm0 9.7439c18.235 0 32.932 14.697 32.932 32.932s-14.696 32.95-32.932 32.95c-18.235 0-32.95-14.715-32.95-32.95s14.715-32.932 32.95-32.932z" stroke-width="15.973"/>
  <path d="m209.03 46.588c-22.728 0-41.245 18.517-41.245 41.245s18.518 41.245 41.245 41.245c22.728 0 41.226-18.517 41.226-41.245s-18.498-41.245-41.226-41.245zm0 6.8645c19.015 0 34.381 15.365 34.381 34.381 0 19.015-15.365 34.381-34.381 34.381-19.015 0-34.38-15.365-34.38-34.381 0-19.015 15.365-34.381 34.38-34.381z" stroke-width="11.245"/>
 </g>
 <g stroke-dasharray="null" stroke-linecap="null" stroke-linejoin="null" stroke-width="5">
  <ellipse cx="232.45" cy="44.838" rx="7.7767" ry="7.7767"/>
  <ellipse cx="165.67" cy="66.796" rx="7.7767" ry="7.7767"/>
  <ellipse cx="185.79" cy="132.67" rx="7.7767" ry="7.7767"/>
  <ellipse cx="256.24" cy="110.71" rx="7.7767" ry="7.7767"/>
 </g>
 <ellipse cx="208.94" cy="88.296" rx="41.628" ry="41.628" fill="#fff" stroke-dasharray="null" stroke-linecap="null" stroke-linejoin="null" stroke-width="5"/>
 <g fill="#7f7f7f">
  <g stroke-linecap="round" stroke-width="33.805">
   <path d="m297.2 94.999l7.519 20.671c-0.015991 0.017021-0.026978 0.039001-0.042999 0.057007l0.057 0.172c-3.162 3.446-6.006 7.249-8.463 11.393l-22.643-0.615c-0.449 1.018-0.90903 2.034-1.316 3.059-0.55402 1.398-1.066 2.793-1.543 4.203-0.478 1.41-0.92902 2.84-1.33 4.26-0.35898 1.273-0.67297 2.539-0.97198 3.817l18.527 12.394c-0.02301 0.204-0.007996 0.412-0.028992 0.615l0.129 0.086c-0.21301 2.161-0.284 4.322-0.28601 6.475h40.684c0.009003-1.297 0.11502-2.597 0.30102-3.874 0.185-1.276 0.457-2.536 0.81497-3.774 0.35602-1.237 0.79202-2.45 1.315-3.63 0.52301-1.181 1.132-2.325 1.815-3.431 0.68301-1.106 1.436-2.175 2.273-3.188 0.83701-1.014 1.759-1.97 2.745-2.874 0.98502-0.903 2.031-1.754 3.159-2.53 1.128-0.77499 2.338-1.486 3.603-2.115 0.90201-0.45 1.805-0.83699 2.73-1.187 0.92401-0.351 1.862-0.662 2.802-0.91499 0.94-0.25301 1.882-0.45601 2.831-0.615 0.44501-0.074005 0.897-0.103 1.343-0.157 0.15298-0.020004 0.30499-0.039993 0.457-0.057007 0.353-0.036987 0.70599-0.10399 1.059-0.129 0.34399-0.024002 0.685-0.001999 1.029-0.013992 0.39002-0.016998 0.78-0.027008 1.172-0.029007 0.21402 0.001007 0.42902-0.019989 0.643-0.013992 0.15799 0.003998 0.315 0.022003 0.47202 0.028992 0.78598 0.026001 1.572 0.097 2.359 0.185 3.375 0.382 6.745 1.307 9.949 2.903 10.118 5.036 15.931 15.033 15.997 25.416h40.727c0-2.161-0.098999-4.335-0.314-6.504l18.755-12.551c-0.005005-0.024002-0.02301-0.046997-0.028015-0.072006-0.32599-1.428-0.686-2.854-1.087-4.274-0.40097-1.42-0.83698-2.836-1.315-4.246-0.47803-1.41-0.98901-2.805-1.544-4.203-0.40201-1.014-0.84201-2.026-1.287-3.03l-22.472 0.615c-0.14999-0.254-0.332-0.49199-0.48599-0.74399h-0.143c-1.101-1.808-2.272-3.556-3.516-5.232-1.245-1.675-2.556-3.28-3.932-4.817l7.634-20.957c-0.66302-0.579-1.322-1.158-2.001-1.716-1.129-0.927-2.276-1.833-3.445-2.702-1.17-0.86899-2.367-1.706-3.574-2.516s-2.431-1.594-3.674-2.344c-0.35602-0.215-0.711-0.424-1.072-0.629l-17.841 13.423c-0.25998-0.11399-0.526-0.18899-0.78598-0.3l-0.043 0.029c-1.97-0.838-3.981-1.573-6.019-2.23-2.037-0.65799-4.097-1.226-6.189-1.702l-0.029-0.071c-0.01001-0.001999-0.018005-0.011986-0.028015-0.013985l-6.419-21.3c-0.90298-0.094009-1.795-0.20601-2.702-0.27201-1.457-0.10699-2.925-0.162-4.388-0.19999-0.97998-0.026001-1.962-0.018013-2.946-0.014008-0.491 0.004997-0.98102-0.013-1.472 0-1.464 0.03801-2.917 0.10701-4.374 0.214-0.46399 0.034004-0.92499 0.10201-1.387 0.14301l-6.404 21.214c-4.647 0.959-9.182 2.37-13.538 4.217l-18.012-13.537c-0.60199 0.34399-1.207 0.66999-1.801 1.029-1.243 0.75-2.467 1.534-3.674 2.344-1.207 0.80999-2.405 1.647-3.574 2.516s-2.316 1.775-3.445 2.702c-0.449 0.36899-0.875 0.765-1.315 1.144v-8e-6zm83.156 17.969c0.62198 0.043007 1.254 0.207 1.844 0.5 2.36 1.176 3.304 4.013 2.101 6.319s-4.101 3.219-6.461 2.044c-2.361-1.175-3.304-3.998-2.102-6.304 0.90201-1.73 2.751-2.688 4.618-2.559zm-68.103 21.629c0.62198 0.042999 1.254 0.207 1.844 0.5 2.36 1.175 3.304 3.998 2.101 6.304-1.203 2.307-4.101 3.22-6.461 2.045-2.361-1.175-3.305-3.998-2.102-6.304 0.90201-1.73 2.752-2.674 4.618-2.545z"/>
   <path d="m416.8 227.59l-7.52-20.671c0.015991-0.018005 0.026978-0.040009 0.042999-0.057007l-0.057-0.172c3.162-3.446 6.007-7.249 8.463-11.393l22.643 0.614c0.45001-1.017 0.909-2.033 1.316-3.058 0.55399-1.398 1.066-2.793 1.544-4.204 0.47699-1.409 0.92798-2.839 1.329-4.259 0.35901-1.273 0.67401-2.539 0.97202-3.817l-18.527-12.395c0.02301-0.20299 0.007996-0.411 0.028992-0.614l-0.129-0.086c0.21301-2.161 0.285-4.322 0.28601-6.476h-40.684c-0.009003 1.298-0.11502 2.598-0.30002 3.874-0.186 1.277-0.45801 2.537-0.815 3.774-0.357 1.238-0.79199 2.451-1.315 3.631-0.52298 1.181-1.133 2.325-1.816 3.431-0.68301 1.106-1.436 2.175-2.273 3.188-0.83701 1.014-1.759 1.97-2.745 2.873-0.98502 0.90401-2.031 1.755-3.159 2.531-1.128 0.77499-2.338 1.486-3.602 2.115-0.90298 0.45-1.806 0.83699-2.731 1.187-0.92401 0.34999-1.862 0.661-2.802 0.91499-0.94 0.25301-1.881 0.45601-2.83 0.615-0.44601 0.074005-0.897 0.103-1.344 0.157-0.15298 0.018997-0.30399 0.039993-0.457 0.057007-0.35199 0.036987-0.70599 0.10399-1.058 0.129-0.34399 0.024002-0.686 0.001999-1.029 0.013992-0.39102 0.016998-0.78101 0.027008-1.173 0.028-0.21402-9.92e-4 -0.42902 0.020004-0.643 0.014999-0.15701-0.003998-0.314-0.022003-0.47202-0.028992-0.78598-0.026001-1.572-0.097-2.358-0.186-3.376-0.381-6.746-1.307-9.95-2.902-10.117-5.036-15.931-15.033-15.996-25.417h-40.728c0 2.162 0.10001 4.336 0.314 6.505l-18.755 12.551c0.005005 0.024002 0.02301 0.046997 0.028992 0.070984 0.32501 1.429 0.685 2.854 1.086 4.275 0.401 1.42 0.83801 2.836 1.315 4.245 0.478 1.411 0.98999 2.806 1.544 4.204 0.40302 1.014 0.84201 2.026 1.287 3.03l22.472-0.615c0.14999 0.254 0.332 0.49199 0.48599 0.74399h0.143c1.101 1.808 2.272 3.556 3.517 5.232 1.244 1.675 2.555 3.279 3.931 4.817l-7.634 20.957c0.66302 0.57898 1.323 1.158 2.002 1.716 1.128 0.927 2.275 1.833 3.445 2.701 1.169 0.86899 2.366 1.707 3.573 2.516 1.208 0.81 2.432 1.595 3.674 2.345 0.35602 0.215 0.71201 0.42401 1.073 0.629l17.84-13.423c0.25998 0.11398 0.526 0.189 0.78598 0.29999l0.043-0.029c1.97 0.83798 3.982 1.573 6.019 2.23 2.037 0.65802 4.098 1.226 6.19 1.701l0.028 0.072c0.01001 0.001984 0.018005 0.011993 0.028992 0.014008l6.418 21.3c0.90298 0.093994 1.796 0.20599 2.702 0.272 1.457 0.107 2.925 0.16199 4.389 0.20001 0.979 0.024994 1.962 0.017975 2.945 0.013977 0.492-0.004974 0.98102 0.013 1.472 0 1.464-0.037994 2.918-0.107 4.375-0.21399 0.46298-0.033997 0.92398-0.10199 1.386-0.143l6.405-21.215c4.646-0.95801 9.181-2.369 13.537-4.216l18.012 13.537c0.60199-0.34402 1.207-0.67001 1.801-1.029 1.243-0.75 2.467-1.535 3.674-2.345 1.208-0.80899 2.405-1.647 3.574-2.516 1.17-0.86801 2.317-1.774 3.445-2.701 0.449-0.36902 0.875-0.76502 1.316-1.144zm-83.156-17.969c-0.62201-0.042999-1.254-0.207-1.844-0.50101-2.361-1.175-3.305-4.012-2.102-6.318s4.101-3.219 6.462-2.044c2.36 1.175 3.304 3.998 2.101 6.304-0.90201 1.73-2.751 2.688-4.617 2.559zm68.103-21.629c-0.62201-0.042999-1.254-0.207-1.844-0.5-2.361-1.176-3.305-3.998-2.102-6.304 1.203-2.307 4.101-3.22 6.462-2.045 2.36 1.175 3.304 3.998 2.101 6.304-0.90201 1.73-2.751 2.674-4.617 2.545z"/>
  </g>
  <g stroke-linejoin="round">
   <path d="m357.09 118.16c-23.508 0-42.694 19.167-42.694 42.675 0 23.509 19.186 42.695 42.694 42.695s42.676-19.186 42.676-42.695c0-23.508-19.168-42.675-42.676-42.675zm0 9.744c18.235 0 32.931 14.697 32.931 32.931 0 18.235-14.696 32.951-32.931 32.951s-32.95-14.716-32.95-32.951c0-18.234 14.715-32.931 32.95-32.931z" stroke-width="15.973"/>
   <path d="m357.09 119.59c-22.728 0-41.245 18.517-41.245 41.245s18.517 41.246 41.245 41.246 41.226-18.518 41.226-41.246-18.498-41.245-41.226-41.245zm0 6.865c19.015 0 34.381 15.365 34.381 34.38 0 19.016-15.366 34.381-34.381 34.381s-34.38-15.365-34.38-34.381c0-19.015 15.365-34.38 34.38-34.38z" stroke-width="11.245"/>
  </g>
 </g>
 <g fill="#7f7f7f" stroke-dasharray="null" stroke-linecap="null" stroke-linejoin="null" stroke-width="5">
  <ellipse cx="380.52" cy="117.84" rx="7.7767" ry="7.7767"/>
  <ellipse cx="313.73" cy="139.8" rx="7.7767" ry="7.7767"/>
  <ellipse cx="333.86" cy="205.67" rx="7.7767" ry="7.7767"/>
  <ellipse cx="404.3" cy="183.71" rx="7.7767" ry="7.7767"/>
 </g>
 <ellipse cx="357" cy="161.3" rx="41.628" ry="41.628" fill="#fff" stroke-dasharray="null" stroke-linecap="null" stroke-linejoin="null" stroke-width="5"/>
</svg>
