<svg height="512" viewBox="0 0 512 512" width="512" xmlns="http://www.w3.org/2000/svg"><g id="flat"><path d="m312 312-80-8-64-72v-24h-64a30.739 30.739 0 0 0 23.283 29.821l8.717 2.179 58.831 88.247a30.007 30.007 0 0 0 13.82 11.214l31.349 12.539z" fill="#015078"/><path d="m445 280h-61l-72 32h-23.147a60 60 0 0 0 -42.427 17.573l-30.426 30.427-104-24-40 32a28.844 28.844 0 0 0 40 8l95.775 22.1a30.01 30.01 0 0 0 16.233-.771l87.992-29.329a184.669 184.669 0 0 0 76.415-16.552l59.585-28.448z" fill="#0276b4"/><path d="m168 216h-120a8 8 0 0 1 0-16h120a8 8 0 0 1 0 16z" fill="#015078"/><path d="m27.006 411a8 8 0 0 1 -4.712-14.47l85-67a8 8 0 0 1 9.412 12.94l-85 67a7.968 7.968 0 0 1 -4.7 1.53z" fill="#0276b4"/><path d="m376 332v52l56 40 16 24 27.614-6.9a4 4 0 0 0 2.763-5.317l-8.377-21.783a12.594 12.594 0 0 0 4.785-16.431l-1-1.991a4 4 0 0 0 -5.367-1.789l-12.418 6.211-40-32v-36a20 20 0 0 0 -20-20 20 20 0 0 0 -20 20z" fill="#015078"/><path d="m448 323h-36a28.032 28.032 0 0 1 -28-28v-33a8 8 0 0 1 8-8c4.418 0 8-3.418 8 1v40a12.013 12.013 0 0 0 12 12h36a8 8 0 0 1 0 16z" fill="#fbb540"/><g fill="#b0d2fd"><circle cx="392" cy="168" r="16"/><circle cx="440" cy="112" r="16"/><circle cx="344" cy="80" r="16"/></g><path d="m416 248h64a0 0 0 0 1 0 0v32a32 32 0 0 1 -32 32 32 32 0 0 1 -32-32v-32a0 0 0 0 1 0 0z" fill="#015078"/><path d="m448 200a32 32 0 0 1 32 32v16a0 0 0 0 1 0 0h-64a0 0 0 0 1 0 0v-16a32 32 0 0 1 32-32z" fill="#0276b4"/><path d="m408 280h24l16-8 16 8h24v-32h-80z" fill="#43dcfe"/><circle cx="448" cy="312" fill="#eaeae8" r="16"/><path d="m384.959 228.911a16 16 0 0 1 16 16v24a0 0 0 0 1 0 0h-32a0 0 0 0 1 0 0v-24a16 16 0 0 1 16-16z" fill="#cbcbcb" transform="matrix(.434 .901 -.901 .434 442.37 -205.901)"/><path d="m339.262 219.75a32 32 0 0 1 32 32v64a0 0 0 0 1 0 0h-64a0 0 0 0 1 0 0v-64a32 32 0 0 1 32-32z" fill="#eaeae8" transform="matrix(.434 .901 -.901 .434 433.46 -154.05)"/><path d="m249.589 279.5h64a0 0 0 0 1 0 0 32 32 0 0 1 -32 32 32 32 0 0 1 -32-32 0 0 0 0 1 0 0z" fill="#cbcbcb" transform="matrix(.434 .901 -.901 .434 425.793 -86.362)"/><path d="m353.141 304.588a8 8 0 0 1 -7.215-4.533l-27.746-57.673a8 8 0 0 1 14.418-6.937l27.746 57.673a8 8 0 0 1 -7.2 11.47z" fill="#e82f3e"/><path d="m480 248h8v32h-8z" fill="#2fbbdf"/></g></svg>